<svg xmlns="http://www.w3.org/2000/svg" xmlns:xlink="http://www.w3.org/1999/xlink" width="378" zoomAndPan="magnify" viewBox="0 0 283.5 283.500005" height="378" preserveAspectRatio="xMidYMid meet" version="1.0"><defs><clipPath id="3ac4d92675"><path d="M 116 106.238281 L 178 106.238281 L 178 163 L 116 163 Z M 116 106.238281 " clip-rule="nonzero"/></clipPath><clipPath id="020168a265"><path d="M 104.820312 108 L 161 108 L 161 146 L 104.820312 146 Z M 104.820312 108 " clip-rule="nonzero"/></clipPath><clipPath id="b3cf172d9b"><path d="M 107 126 L 173 126 L 173 176.617188 L 107 176.617188 Z M 107 126 " clip-rule="nonzero"/></clipPath></defs><g clip-path="url(#3ac4d92675)"><path fill="#ca6d3b" d="M 176.378906 107.429688 C 174.878906 106.238281 172.695312 106.488281 171.503906 107.988281 L 136.117188 152.492188 L 122.800781 139.175781 C 121.449219 137.824219 119.25 137.824219 117.894531 139.175781 C 116.542969 140.53125 116.542969 142.726562 117.894531 144.082031 L 136.710938 162.894531 L 176.933594 112.304688 C 178.125 110.804688 177.875 108.625 176.378906 107.429688 Z M 176.378906 107.429688 " fill-opacity="1" fill-rule="nonzero"/></g><g clip-path="url(#020168a265)"><path fill="#ca6d3b" d="M 109.890625 142.691406 C 109.890625 138.777344 110.65625 134.984375 112.167969 131.414062 C 112.894531 129.695312 113.789062 128.042969 114.835938 126.492188 C 115.875 124.957031 117.066406 123.515625 118.375 122.203125 C 119.6875 120.890625 121.132812 119.699219 122.667969 118.664062 C 124.214844 117.613281 125.871094 116.71875 127.589844 115.992188 C 131.160156 114.480469 134.953125 113.714844 138.867188 113.714844 C 142.78125 113.714844 146.574219 114.480469 150.144531 115.992188 C 151.863281 116.71875 153.515625 117.613281 155.066406 118.664062 C 155.972656 119.273438 156.847656 119.941406 157.679688 120.652344 L 160.828125 116.695312 C 159.890625 115.898438 158.910156 115.15625 157.894531 114.472656 C 156.078125 113.242188 154.132812 112.1875 152.113281 111.335938 C 147.917969 109.558594 143.460938 108.660156 138.867188 108.660156 C 134.273438 108.660156 129.816406 109.5625 125.617188 111.339844 C 123.601562 112.191406 121.65625 113.246094 119.835938 114.476562 C 118.035156 115.691406 116.339844 117.089844 114.800781 118.628906 C 113.261719 120.171875 111.863281 121.863281 110.644531 123.664062 C 109.421875 125.484375 108.363281 127.429688 107.511719 129.445312 C 105.734375 133.640625 104.835938 138.097656 104.835938 142.691406 C 104.835938 144.089844 105.96875 145.21875 107.363281 145.21875 C 108.757812 145.21875 109.890625 144.089844 109.890625 142.691406 Z M 109.890625 142.691406 " fill-opacity="1" fill-rule="nonzero"/></g><g clip-path="url(#b3cf172d9b)"><path fill="#ca6d3b" d="M 168.953125 126.78125 L 165.460938 131.175781 C 165.496094 131.253906 165.527344 131.335938 165.5625 131.414062 C 167.074219 134.984375 167.839844 138.777344 167.839844 142.691406 C 167.839844 146.605469 167.074219 150.398438 165.5625 153.96875 C 164.835938 155.6875 163.941406 157.339844 162.890625 158.890625 C 161.855469 160.425781 160.664062 161.867188 159.351562 163.183594 C 158.042969 164.492188 156.597656 165.683594 155.0625 166.722656 C 153.515625 167.769531 151.859375 168.664062 150.140625 169.390625 C 146.570312 170.902344 142.777344 171.667969 138.863281 171.667969 C 136.527344 171.667969 134.207031 171.390625 131.960938 170.839844 C 129.78125 170.308594 127.660156 169.519531 125.660156 168.492188 C 123.695312 167.484375 121.839844 166.246094 120.148438 164.816406 C 119.785156 164.507812 119.429688 164.1875 119.078125 163.863281 L 123.027344 159.914062 C 123.460938 159.480469 123.242188 158.738281 122.644531 158.613281 L 108.222656 155.527344 C 107.671875 155.410156 107.1875 155.898438 107.304688 156.445312 L 110.378906 170.871094 C 110.507812 171.46875 111.25 171.691406 111.683594 171.253906 L 115.503906 167.433594 C 115.953125 167.859375 116.414062 168.269531 116.882812 168.667969 C 118.867188 170.351562 121.046875 171.800781 123.355469 172.988281 C 125.707031 174.191406 128.199219 175.121094 130.761719 175.75 C 133.402344 176.394531 136.128906 176.722656 138.867188 176.722656 C 143.460938 176.722656 147.917969 175.820312 152.113281 174.046875 C 154.132812 173.195312 156.074219 172.136719 157.894531 170.910156 C 159.699219 169.691406 161.390625 168.292969 162.929688 166.753906 C 164.46875 165.214844 165.867188 163.519531 167.085938 161.71875 C 168.316406 159.898438 169.371094 157.953125 170.222656 155.9375 C 172 151.738281 172.898438 147.28125 172.898438 142.691406 C 172.898438 138.097656 172 133.640625 170.222656 129.441406 C 169.835938 128.542969 169.414062 127.652344 168.953125 126.78125 Z M 168.953125 126.78125 " fill-opacity="1" fill-rule="nonzero"/></g></svg>