<svg xmlns="http://www.w3.org/2000/svg" xmlns:xlink="http://www.w3.org/1999/xlink" width="378" zoomAndPan="magnify" viewBox="0 0 283.5 283.500005" height="378" preserveAspectRatio="xMidYMid meet" version="1.0"><defs><clipPath id="655d408f1f"><path d="M 1 1 L 282 1 L 282 282 L 1 282 Z M 1 1 " clip-rule="nonzero"/></clipPath><clipPath id="743701e273"><path d="M -23.523438 241.800781 L 41.050781 -23.015625 L 305.867188 41.558594 L 241.292969 306.375 Z M -23.523438 241.800781 " clip-rule="nonzero"/></clipPath><clipPath id="88a675f3b1"><path d="M 75.757812 18.992188 C 65.546875 21.976562 58.253906 30.128906 55.898438 39.769531 L 55.898438 39.765625 C 53.539062 49.40625 46.246094 57.558594 36.035156 60.542969 C 20.800781 64.996094 12.0625 80.957031 16.515625 96.191406 L 16.515625 96.195312 L 16.507812 96.191406 C 19.265625 105.652344 17.078125 116.273438 9.851562 123.949219 C 6.277344 127.621094 3.757812 132.1875 2.550781 137.164062 C 0.03125 147.5 3.445312 157.890625 10.613281 164.753906 C 17.777344 171.617188 21.195312 182.011719 18.675781 192.34375 C 14.914062 207.765625 24.367188 223.3125 39.785156 227.074219 L 39.789062 227.074219 L 39.785156 227.082031 C 49.351562 229.421875 57.449219 236.621094 60.492188 246.707031 C 61.882812 251.644531 64.574219 256.117188 68.289062 259.652344 C 75.980469 267.003906 86.683594 269.242188 96.210938 266.464844 C 105.738281 263.691406 116.445312 265.929688 124.132812 273.28125 C 135.609375 284.246094 153.800781 283.835938 164.765625 272.359375 L 164.769531 272.359375 L 164.773438 272.363281 C 171.632812 265.195312 182.023438 261.785156 192.359375 264.304688 C 207.78125 268.0625 223.328125 258.613281 227.089844 243.191406 C 229.609375 232.855469 237.421875 225.207031 246.945312 222.410156 C 256.464844 219.617188 264.285156 211.964844 266.804688 201.628906 C 268.023438 196.652344 267.886719 191.441406 266.40625 186.539062 C 263.523438 176.398438 266.472656 165.960938 273.273438 158.832031 L 273.265625 158.828125 L 273.269531 158.828125 C 284.234375 147.351562 283.820312 129.160156 272.347656 118.191406 C 264.660156 110.84375 261.9375 100.25 264.28125 90.605469 L 264.277344 90.609375 C 266.621094 80.964844 263.898438 70.371094 256.210938 63.023438 C 252.425781 59.40625 247.90625 57.023438 243.160156 55.871094 L 243.164062 55.867188 C 233.867188 53.59375 225.953125 46.726562 222.722656 37.078125 C 221.453125 31.992188 218.777344 27.195312 214.707031 23.308594 C 207.015625 15.957031 196.308594 13.71875 186.78125 16.496094 L 186.78125 16.492188 C 177.257812 19.269531 166.550781 17.03125 158.859375 9.679688 C 147.382812 -1.289062 129.195312 -0.875 118.226562 10.601562 L 118.222656 10.601562 L 118.222656 10.597656 C 111.414062 17.707031 101.132812 21.121094 90.878906 18.714844 C 86.0625 17.488281 80.871094 17.496094 75.757812 18.992188 " clip-rule="nonzero"/></clipPath></defs><g clip-path="url(#655d408f1f)"><g clip-path="url(#743701e273)"><g clip-path="url(#88a675f3b1)"><path fill="#3a6d65" d="M -22.867188 241.402344 L 41.578125 -22.886719 L 305.867188 41.558594 L 241.421875 305.847656 Z M -22.867188 241.402344 " fill-opacity="1" fill-rule="nonzero"/></g></g></g></svg>